#!OML:ASF X:\für Bonn\!DataBase\2005_08_12_Daniel\c3d\Daniel.ASF
:FULLY-SPECIFIED
:DEGREES
326
root 2.29979 16.7706 -0.365227 -563.459 -95.1681 553.271
lowerback 18.9061 -1.06365 1.33314
upperback 5.57943 -1.62311 -2.48459
thorax -4.67374 -0.934928 -3.02951
lowerneck 5.43391 -0.352521 1.52789
upperneck 9.72826 -0.704063 0.452956
head 2.12561 -0.395583 -0.119108
rclavicle 1.41137e-014 6.36111e-015
rhumerus -41.4411 -11.3303 -77.4383
rradius 36.2705
rwrist 6.23073
rhand -19.5559 729.853
rfingers 7.12502
rthumb 6.76855 -20.0187
lclavicle 1.41137e-014 6.36111e-015
lhumerus -216.291 150.246 -110.755
lradius 42.097
lwrist -5.7523
lhand -15.3261 -0.488081
lfingers 7.12502
lthumb 10.8502 29.2116
rfemur -0.524875 13.5684 22.3107
rtibia 36.1823
rfoot -32.9543 -13.3491
rtoes -8.15084
lfemur -195.311 182.754 -191.916
ltibia 51.4794
lfoot 348.543 -14.5486
ltoes 1.9462
327
root 2.31635 16.7724 -0.368783 -564.092 -95.0759 553.865
lowerback 18.9327 -1.0815 1.48077
upperback 5.59889 -1.6197 -2.47554
thorax -4.66955 -0.934002 -3.10479
lowerneck 5.6518 -0.289275 1.52453
upperneck 10.0439 -0.626796 0.324133
head 2.19208 -0.364922 -0.159191
rclavicle -1.59028e-015 1.98785e-014
rhumerus -40.7439 -10.4512 -78.5315
rradius 37.591
rwrist 6.72468
rhand -19.7898 730.337
rfingers 7.12502
rthumb 6.54276 -19.5415
lclavicle -1.59028e-015 1.98785e-014
lhumerus -214.724 151.433 -108.662
lradius 43.4933
lwrist -6.21447
lhand -15.3269 -0.870083
lfingers 7.12502
lthumb 10.8495 28.8297
rfemur -0.489014 14.0397 22.4361
rtibia 36.1619
rfoot -33.1089 -13.6336
rtoes -8.04105
lfemur -195.818 182.417 -191.787
ltibia 52.0614
lfoot 349.662 -14.7113
ltoes 2.10336
328
root 2.33094 16.7773 -0.371176 -565.241 -95.004 554.99
lowerback 18.9289 -1.10019 1.5597
upperback 5.6119 -1.62938 -2.46182
thorax -4.65562 -0.939032 -3.13312
lowerneck 5.91063 -0.211119 1.45718
upperneck 10.3294 -0.534084 0.236806
head 2.24224 -0.328659 -0.17539
rclavicle 7.15625e-015 3.18055e-015
rhumerus -40.0655 -9.58165 -79.5084
rradius 38.8585
rwrist 7.20002
rhand -19.8799 731.02
rfingers 7.12502
rthumb 6.45577 -18.862
lclavicle 7.15625e-015 3.18055e-015
lhumerus -213.257 152.576 -106.705
lradius 44.8601
lwrist -6.86123
lhand -15.2512 -1.35754
lfingers 7.12502
lthumb 10.9224 28.3384
rfemur -0.443444 14.5202 22.5101
rtibia 36.1263
rfoot -33.2244 -13.9899
rtoes -8.03356
lfemur -196.301 182.165 -191.735
ltibia 52.5996
lfoot 350.724 -14.7689
ltoes 2.25181
329
root 2.34544 16.7813 -0.372448 -566.437 -94.9597 556.171
lowerback 18.9012 -1.11928 1.64358
upperback 5.62911 -1.63912 -2.45518
thorax -4.62493 -0.943808 -3.17215
lowerneck 6.19713 -0.143855 1.40075
upperneck 10.5949 -0.453796 0.129238
head 2.2812 -0.299059 -0.199821
rclavicle 9.34288e-015 7.15625e-015
rhumerus -39.396 -8.82562 -80.3911
rradius 40.0376
rwrist 7.71648
rhand -19.9632 731.902
rfingers 7.12502
rthumb 6.3753 -17.9824
lclavicle 9.34288e-015 7.15625e-015
lhumerus -211.843 153.762 -104.854
lradius 46.1487
lwrist -7.69233
lhand -15.1835 -2.07617
lfingers 7.12502
lthumb 10.9878 27.6163
rfemur -0.395477 14.9663 22.5653
rtibia 36.077
rfoot -33.3411 -14.3227
rtoes -8.01097
lfemur -196.782 181.975 -191.718
ltibia 53.0938
lfoot 351.694 -14.7966
ltoes 2.26489
330
root 2.35752 16.7876 -0.372963 -567.71 -94.914 557.427
lowerback 18.8501 -1.14073 1.70573
upperback 5.65945 -1.65638 -2.44423
thorax -4.56787 -0.952027 -3.19278
lowerneck 6.38556 -0.0610208 1.34483
upperneck 10.9306 -0.356533 0.0300657
head 2.36088 -0.261038 -0.222384
rclavicle -8.59744e-015 -7.95139e-016
rhumerus -38.6941 -8.15633 -81.1982
rradius 41.1115
rwrist 8.26591
rhand -20.0335 732.906
rfingers 7.12502
rthumb 6.30746 -16.9803
lclavicle -8.59744e-015 -7.95139e-016
lhumerus -210.495 154.953 -103.127
lradius 47.3941
lwrist -8.59878
lhand -15.1102 -2.84493
lfingers 7.12502
lthumb 11.0585 26.8437
rfemur -0.314934 15.4673 22.6306
rtibia 36.0083
rfoot -33.5154 -14.6748
rtoes -7.95075
lfemur -197.225 181.801 -191.71
ltibia 53.5348
lfoot 352.673 -14.7688
ltoes 2.51359
331
root 2.36855 16.7945 -0.372056 -569.1 -94.8936 558.816
lowerback 18.78 -1.16501 1.7594
upperback 5.67478 -1.67862 -2.44138
thorax -4.51736 -0.962389 -3.2163
lowerneck 6.58372 0.0105948 1.29093
upperneck 11.2581 -0.274893 -0.0608787
head 2.43657 -0.231075 -0.242787
rclavicle -7.85199e-015 -1.51076e-014
rhumerus -38.0113 -7.48445 -81.9423
rradius 42.0894
rwrist 8.78345
rhand -19.9899 733.887
rfingers 7.12502
rthumb 6.34953 -15.9977
lclavicle -7.85199e-015 -1.51076e-014
lhumerus -209.292 156.227 -101.551
lradius 48.5984
lwrist -9.48216
lhand -15.0409 -3.68468
lfingers 7.12502
lthumb 11.1253 26.0004
rfemur -0.217924 16.0267 22.6947
rtibia 35.9242
rfoot -33.7272 -15.0757
rtoes -7.86878
lfemur -197.657 181.691 -191.743
ltibia 53.9198
lfoot 353.557 -14.7042
ltoes 2.78927
332
root 2.37802 16.8007 -0.370306 -570.772 -94.8717 560.477
lowerback 18.6912 -1.17992 1.79623
upperback 5.70336 -1.69381 -2.45769
thorax -4.4425 -0.969144 -3.25265
lowerneck 6.78695 0.076318 1.31365
upperneck 11.5859 -0.194921 -0.194381
head 2.51214 -0.20037 -0.289759
rclavicle 1.49585e-014 1.59028e-014
rhumerus -37.3161 -6.88563 -82.6643
rradius 42.987
rwrist 9.33126
rhand -19.9299 734.843
rfingers 7.12502
rthumb 6.4075 -15.0398
lclavicle 1.49585e-014 1.59028e-014
lhumerus -208.188 157.552 -100.125
lradius 49.7532
lwrist -10.4057
lhand -14.9815 -4.47442
lfingers 7.12502
lthumb 11.1826 25.2076
rfemur -0.0972615 16.5687 22.7362
rtibia 35.8242
rfoot -33.9189 -15.4653
rtoes -7.83028
lfemur -198.024 181.604 -191.815
ltibia 54.2453
lfoot 354.154 -14.6204
ltoes 3.06236
333
root 2.38729 16.8082 -0.367718 -572.368 -94.8665 562.071
lowerback 18.5846 -1.20217 1.83405
upperback 5.74385 -1.71852 -2.46712
thorax -4.34615 -0.980342 -3.28042
lowerneck 6.9555 0.143709 1.28178
upperneck 11.9195 -0.117444 -0.29815
head 2.5961 -0.172548 -0.318395
rclavicle -1.4064e-014 -2.34566e-014
rhumerus -36.5484 -6.25407 -83.3594
rradius 43.7533
rwrist 9.82564
rhand -19.8206 735.665
rfingers 7.12502
rthumb 6.51301 -14.2151
lclavicle -1.4064e-014 -2.34566e-014
lhumerus -207.117 158.927 -98.7832
lradius 50.8013
lwrist -11.2303
lhand -14.9444 -5.17833
lfingers 7.12502
lthumb 11.2184 24.5017
rfemur 0.0496639 17.2564 22.8306
rtibia 35.7088
rfoot -34.2042 -15.9933
rtoes -7.84993
lfemur -198.379 181.57 -191.892
ltibia 54.5066
lfoot 354.534 -14.5565
ltoes 3.16884
334
root 2.39529 16.8151 -0.364022 -573.794 -94.8813 563.492
lowerback 18.4829 -1.23093 1.87201
upperback 5.77261 -1.75116 -2.47662
thorax -4.26559 -0.995412 -3.30654
lowerneck 7.16689 0.208932 1.29159
upperneck 12.2409 -0.0408495 -0.407785
head 2.66923 -0.144324 -0.355998
rclavicle -8.79622e-015 -8.34896e-015
rhumerus -35.8705 -5.6317 -84.025
rradius 44.4824
rwrist 10.2991
rhand -19.7075 736.331
rfingers 7.12502
rthumb 6.6222 -13.5459
lclavicle -8.79622e-015 -8.34896e-015
lhumerus -206.166 160.404 -97.575
lradius 51.7859
lwrist -11.8991
lhand -14.9603 -5.7772
lfingers 7.12502
lthumb 11.203 23.9037
rfemur 0.227586 17.963 22.9464
rtibia 35.5808
rfoot -34.511 -16.5251
rtoes -7.76958
lfemur -198.703 181.544 -191.98
ltibia 54.7078
lfoot 354.821 -14.4984
ltoes 3.14632
335
root 2.40196 16.8223 -0.359449 -575.221 -94.8769 564.927
lowerback 18.3675 -1.25794 1.90093
upperback 5.79348 -1.78232 -2.47837
thorax -4.18571 -1.00958 -3.31978
lowerneck 7.45271 0.265561 1.3209
upperneck 12.5148 0.0298373 -0.562049
head 2.714 -0.119652 -0.411071
rclavicle -1.56046e-014 -9.93923e-015
rhumerus -35.1852 -4.90965 -84.687
rradius 45.1765
rwrist 10.581
rhand -19.4805 736.721
rfingers 7.12502
rthumb 6.84132 -13.1481
lclavicle -1.56046e-014 -9.93923e-015
lhumerus -205.287 161.866 -96.4698
lradius 52.6871
lwrist -12.4913
lhand -15.0292 -6.15904
lfingers 7.12502
lthumb 11.1366 23.5254
rfemur 0.394767 18.5889 23.0337
rtibia 35.4326
rfoot -34.7751 -16.9991
rtoes -7.71538
lfemur -198.987 181.55 -192.066
ltibia 54.8409
lfoot 354.999 -14.4586
ltoes 3.12468
336
root 2.40788 16.8296 -0.354069 -576.347 -94.885 566.037
lowerback 18.2883 -1.30151 1.93798
upperback 5.80079 -1.8321 -2.46405
thorax -4.14045 -1.03328 -3.3159
lowerneck 7.80147 0.342658 1.29003
upperneck 12.7739 0.119033 -0.658699
head 2.7432 -0.0879102 -0.437578
rclavicle 8.74653e-015 -6.36111e-015
rhumerus -34.5741 -4.09746 -85.323
rradius 45.8382
rwrist 10.7204
rhand -19.254 737.047
rfingers 7.12502
rthumb 7.05993 -12.8148
lclavicle 8.74653e-015 -6.36111e-015
lhumerus -204.532 163.335 -95.4667
lradius 53.5365
lwrist -12.9873
lhand -15.0813 -6.44426
lfingers 7.12502
lthumb 11.0863 23.2429
rfemur 0.60454 19.2728 23.177
rtibia 35.2811
rfoot -35.0556 -17.5379
rtoes -7.67868
lfemur -199.211 181.645 -192.152
ltibia 54.9008
lfoot 355.094 -14.347
ltoes 3.10066
337
root 2.41226 16.8372 -0.347609 -577.604 -94.8842 567.301
lowerback 18.1538 -1.33013 1.99808
upperback 5.83223 -1.86104 -2.47416
thorax -4.04018 -1.04605 -3.35698
lowerneck 8.08183 0.397048 1.3121
upperneck 13.0416 0.18275 -0.773328
head 2.7876 -0.0664335 -0.479207
rclavicle 7.60351e-015 2.32578e-014
rhumerus -33.958 -3.36638 -85.9606
rradius 46.4673
rwrist 10.7712
rhand -19.0153 737.281
rfingers 7.12502
rthumb 7.29039 -12.5734
lclavicle 7.60351e-015 2.32578e-014
lhumerus -203.756 164.865 -94.5474
lradius 54.306
lwrist -13.3135
lhand -15.2268 -6.63316
lfingers 7.12502
lthumb 10.946 23.0615
rfemur 0.790475 19.9047 23.2819
rtibia 35.1335
rfoot -35.3548 -17.9978
rtoes -7.67877
lfemur -199.403 181.812 -192.266
ltibia 54.8893
lfoot 355.044 -14.1846
ltoes 2.89488
338
root 2.41679 16.8431 -0.339639 -578.524 -94.8692 568.233
lowerback 18.0181 -1.37413 2.07458
upperback 5.86333 -1.90616 -2.46416
thorax -3.94069 -1.06668 -3.38264
lowerneck 8.37178 0.46635 1.29428
upperneck 13.2856 0.263517 -0.875197
head 2.82265 -0.0380067 -0.51006
rclavicle 3.77691e-015 3.97569e-015
rhumerus -33.3408 -2.56216 -86.583
rradius 47.0276
rwrist 10.6047
rhand -18.7438 737.412
rfingers 7.12502
rthumb 7.55245 -12.4334
lclavicle 3.77691e-015 3.97569e-015
lhumerus -203.078 166.361 -93.7174
lradius 55.0906
lwrist -13.498
lhand -15.2631 -6.69376
lfingers 7.12502
lthumb 10.911 23.0028
rfemur 0.946712 20.4958 23.4044
rtibia 35.0181
rfoot -35.6344 -18.4299
rtoes -7.63742
lfemur -199.555 182.033 -192.354
ltibia 54.7961
lfoot 354.973 -13.9797
ltoes 2.8593
